<svg xmlns="http://www.w3.org/2000/svg" width="54" height="54" viewBox="0 0 54 54"><g><g opacity=".5"><path fill="#f5c506" d="M1.414 14.5l12.219-.464-.082-12.228 5.217 4.99.082 12.227-12.219.464zm7.918 7.572l12.219-.464-.082-12.228 5.217 4.99.082 12.227-12.219.464zm25.9 24.767l-.083-12.227 12.22-.464 5.217 4.989-12.22.464.083 12.227zm-7.918-7.572L27.23 27.04l12.22-.464 5.217 4.989-12.22.464.083 12.227zM39.318 1.233l.464 12.218 12.228-.082-4.99 5.217-12.227.083-.464-12.22zM31.747 9.15l.463 12.22 12.228-.083-4.989 5.217-12.228.083-.464-12.22zM6.979 35.05l12.228-.083.464 12.22-4.99 5.217-.464-12.22-12.227.083zm7.572-7.918l12.227-.083.464 12.22-4.989 5.217-.464-12.22-12.227.083z"/></g><g><path fill="#f5c506" d="M-.005 35.78L8.505 27l-8.51-8.78h7.218L15.724 27l-8.51 8.78zm10.955 0L19.46 27l-8.51-8.78h7.22L26.68 27l-8.51 8.78zm35.836 0L38.276 27l8.51-8.78h7.22L45.494 27l8.51 8.78zm-10.955 0L27.32 27l8.51-8.78h7.218L34.54 27l8.51 8.78zM18.22-.005L27 8.505l8.78-8.51v7.218L27 15.724l-8.78-8.51zm0 10.955L27 19.46l8.78-8.51v7.22L27 26.68l-8.78-8.51zm0 35.836l8.78-8.51 8.78 8.51v7.22L27 45.494l-8.78 8.51zm0-10.955L27 27.32l8.78 8.51v7.218L27 34.54l-8.78 8.51z"/></g></g></svg>